<svg width="404" height="421" viewBox="0 0 404 421" fill="none" xmlns="http://www.w3.org/2000/svg">
<rect y="53" width="404" height="368" rx="30" fill="#FF5436"/>
<path d="M108.8 374C104.267 374 100.667 372.667 98 370C95.3333 367.333 93.7333 364.267 93.2 360.8L49.6 105.2C49.3333 104.667 49.2 104.133 49.2 103.6C49.2 103.067 49.2 102.667 49.2 102.4C49.2 100.267 50 98.4 51.6 96.8C53.4667 94.9333 55.4667 94 57.6 94H107.2C114.667 94 118.8 96.9333 119.6 102.8L145.6 259.2L174.4 166.8C175.2 164.667 176.533 162.4 178.4 160C180.267 157.333 183.333 156 187.6 156H216.4C220.933 156 224.133 157.333 226 160C227.867 162.4 229.067 164.667 229.6 166.8L258.4 258.8L284.4 102.8C285.2 96.9333 289.333 94 296.8 94H346.4C348.8 94 350.8 94.9333 352.4 96.8C354 98.4 354.8 100.267 354.8 102.4C354.8 102.667 354.8 103.067 354.8 103.6C354.8 104.133 354.8 104.667 354.8 105.2L311.2 360.8C310.667 364.267 309.067 367.333 306.4 370C303.733 372.667 300.133 374 295.6 374H257.6C253.067 374 249.6 372.8 247.2 370.4C244.8 368 243.2 365.733 242.4 363.6L202 249.2L161.6 363.6C160.8 365.733 159.2 368 156.8 370.4C154.667 372.8 151.333 374 146.8 374H108.8Z" fill="white"/>
</svg>
