<?xml version="1.0" encoding="UTF-8"?>
<!DOCTYPE svg PUBLIC "-//W3C//DTD SVG 1.1//EN" "http://www.w3.org/Graphics/SVG/1.1/DTD/svg11.dtd">
<!-- Creator: CorelDRAW -->
<svg xmlns="http://www.w3.org/2000/svg" xml:space="preserve" width="466.46mm" height="142.61mm" version="1.1" style="shape-rendering:geometricPrecision; text-rendering:geometricPrecision; image-rendering:optimizeQuality; fill-rule:evenodd; clip-rule:evenodd"
viewBox="0 0 46646 14261"
 xmlns:xlink="http://www.w3.org/1999/xlink"
 xmlns:xodm="http://www.corel.com/coreldraw/odm/2003">
 <defs>
  <style type="text/css">
   <![CDATA[
    .fil0 {fill:#FF5436;fill-rule:nonzero}
    .fil1 {fill:white;fill-rule:nonzero}
   ]]>
  </style>
 </defs>
 <g id="Warstwa_x0020_1">
  <metadata id="CorelCorpID_0Corel-Layer"/>
  <g id="_2152212581520">
   <path class="fil0" d="M1055.64 6.88l44529.38 0c584.39,0 1058.32,473.93 1058.32,1058.33l0.01 12144.38c-0.01,584.39 -473.94,1058.32 -1058.34,1058.32l-44529.37 0.01c-584.39,-0.01 -1058.32,-473.94 -1058.32,-1058.34l-0.01 -12144.37c0.01,-584.4 473.94,-1058.33 1058.34,-1058.33z"/>
   <path class="fil1" d="M4569.31 10775.42c-119.94,0 -215.19,-35.27 -285.75,-105.83 -70.57,-70.57 -112.9,-151.69 -127,-243.42l-1153.58 -6762.75c-7.07,-14.1 -10.59,-28.23 -10.59,-42.33 0,-14.1 0,-24.69 0,-31.75 0,-56.44 21.17,-105.84 63.5,-148.17 49.4,-49.4 102.32,-74.08 158.75,-74.08l1312.34 0c197.56,0 306.91,77.6 328.08,232.83l687.92 4138.08 762 -2444.75c21.16,-56.43 56.43,-116.41 105.83,-179.91 49.4,-70.57 130.52,-105.84 243.42,-105.84l762 0c119.93,0 204.6,35.27 254,105.84 49.39,63.5 81.14,123.48 95.25,179.91l762 2434.17 687.91 -4127.5c21.17,-155.23 130.52,-232.83 328.09,-232.83l1312.33 0c63.5,0 116.42,24.68 158.75,74.08 42.33,42.33 63.5,91.73 63.5,148.17 0,7.06 0,17.65 0,31.75 0,14.1 0,28.23 0,42.33l-1153.58 6762.75c-14.11,91.73 -56.44,172.85 -127,243.42 -70.57,70.56 -165.82,105.83 -285.75,105.83l-1005.42 0c-119.94,0 -211.67,-31.75 -275.17,-95.25 -63.5,-63.5 -105.83,-123.48 -127,-179.92l-1068.91 -3026.83 -1068.92 3026.83c-21.17,56.44 -63.5,116.42 -127,179.92 -56.44,63.5 -144.65,95.25 -264.58,95.25l-1005.42 0zm7864.24 0c-77.61,0 -141.11,-24.68 -190.5,-74.08 -49.38,-49.4 -74.09,-112.9 -74.09,-190.5l0 -6879.17c0,-77.6 24.71,-141.1 74.09,-190.5 49.39,-49.4 112.89,-74.08 190.5,-74.08l1418.16 0c77.63,0 141.13,24.68 190.5,74.08 49.4,49.4 74.09,112.9 74.09,190.5l0 6879.17c0,77.6 -24.69,141.1 -74.09,190.5 -49.37,49.4 -112.87,74.08 -190.5,74.08l-1418.16 0zm3431.32 0c-77.62,0 -141.12,-24.68 -190.5,-74.08 -49.39,-49.4 -74.08,-112.9 -74.08,-190.5l0 -6879.17c0,-77.6 24.69,-141.1 74.08,-190.5 49.38,-49.4 112.88,-74.08 190.5,-74.08l1397 0c70.54,0 130.52,24.68 179.92,74.08 56.44,49.4 84.67,112.9 84.67,190.5l0 5545.67 3196.16 0c77.61,0 141.11,28.23 190.5,84.66 56.44,49.4 84.67,112.9 84.67,190.5l0 1058.34c0,77.6 -28.23,141.1 -84.67,190.5 -49.39,49.4 -112.89,74.08 -190.5,74.08l-4857.75 0zm6314.87 0c-70.57,0 -134.07,-24.68 -190.5,-74.08 -49.4,-49.4 -74.09,-112.9 -74.09,-190.5l0 -6879.17c0,-77.6 24.69,-141.1 74.09,-190.5 56.43,-49.4 119.93,-74.08 190.5,-74.08l1143 0c112.87,0 197.54,31.75 254,95.25 63.5,56.43 102.29,102.31 116.41,137.58l1862.67 3344.33 1862.64 -3344.33c21.17,-35.27 56.36,-81.15 105.83,-137.58 56.36,-63.5 144.73,-95.25 264.59,-95.25l1132.41 0c77.53,0 141.03,24.68 190.5,74.08 56.36,49.4 84.67,112.9 84.67,190.5l0 6879.17c0,77.6 -28.31,141.1 -84.67,190.5 -49.47,49.4 -112.97,74.08 -190.5,74.08l-1259.41 0c-77.52,0 -144.73,-24.68 -201.09,-74.08 -49.47,-49.4 -74.08,-112.9 -74.08,-190.5l0 -3968.75 -1195.89 2211.91c-28.23,63.5 -70.56,119.94 -127,169.34 -56.46,49.4 -134.06,74.08 -232.83,74.08l-550.34 0c-98.79,0 -176.39,-24.68 -232.83,-74.08 -56.46,-49.4 -102.31,-105.84 -137.58,-169.34l-1195.92 -2211.91 0 3968.75c0,77.6 -24.71,141.1 -74.08,190.5 -49.4,49.4 -112.9,74.08 -190.5,74.08l-1270 0zm8753.98 0c-77.53,0 -141.03,-24.68 -190.5,-74.08 -49.48,-49.4 -74.09,-112.9 -74.09,-190.5l0 -6879.17c0,-77.6 24.61,-141.1 74.09,-190.5 49.47,-49.4 112.97,-74.08 190.5,-74.08l4942.41 0c77.53,0 141.03,24.68 190.5,74.08 49.48,49.4 74.09,112.9 74.09,190.5l0 994.83c0,77.61 -24.61,141.11 -74.09,190.5 -49.47,49.4 -112.97,74.09 -190.5,74.09l-3376.08 0 0 1428.75 3143.25 0c77.52,0 141.02,28.23 190.5,84.66 49.48,49.4 74.08,112.9 74.08,190.5l0 920.75c0,70.57 -24.6,134.07 -74.08,190.5 -49.48,49.4 -112.98,74.09 -190.5,74.09l-3143.25 0 0 1471.08 3460.75 0c77.52,0 141.02,24.69 190.5,74.08 49.48,49.4 74.08,112.9 74.08,190.5l0 994.84c0,77.6 -24.6,141.1 -74.08,190.5 -49.48,49.4 -112.98,74.08 -190.5,74.08l-5027.08 0zm6103.14 0c-63.5,0 -119.86,-21.17 -169.33,-63.5 -42.34,-49.4 -63.5,-102.31 -63.5,-158.75 0,-21.17 3.44,-42.33 10.58,-63.5 7.14,-21.17 17.73,-42.33 31.75,-63.5l2307.17 -3429 -2137.84 -3280.83c-21.16,-42.34 -31.75,-84.67 -31.75,-127 0,-56.44 21.17,-105.84 63.5,-148.17 42.34,-49.4 95.25,-74.08 158.75,-74.08l1534.59 0c105.83,0 187.06,28.23 243.41,84.66 56.36,49.4 95.25,95.25 116.42,137.59l1270 1926.16 1280.58 -1926.16c28.31,-42.34 70.65,-88.19 127,-137.59 56.36,-56.43 137.59,-84.66 243.42,-84.66l1449.92 0c63.5,0 116.41,24.68 158.75,74.08 49.47,42.33 74.08,91.73 74.08,148.17 0,49.4 -14.02,91.73 -42.33,127l-2148.42 3270.25 2328.33 3439.58c14.03,21.17 21.17,42.33 21.17,63.5 7.14,21.17 10.58,42.33 10.58,63.5 0,56.44 -21.16,109.35 -63.5,158.75 -42.33,42.33 -95.25,63.5 -158.75,63.5l-1576.91 0c-105.84,0 -190.5,-24.68 -254,-74.08 -56.36,-56.44 -95.25,-102.32 -116.42,-137.59l-1407.58 -2032 -1375.84 2032c-21.16,35.27 -60.06,81.15 -116.41,137.59 -56.36,49.4 -137.59,74.08 -243.42,74.08l-1524 0z"/>
  </g>
 </g>
</svg>
